<mxfile host="app.diagrams.net" modified="2024-03-27T14:19:46.830Z" agent="Mozilla/5.0 (X11; Ubuntu; Linux x86_64; rv:122.0) Gecko/20100101 Firefox/122.0" version="24.2.0" etag="iYVF8Biojjif4tNDn4m2" type="github">
  <diagram name="Page-1" id="KDUNl9cmpLyCEIJjUHdV">
    <mxGraphModel>
      <root>
        <mxCell id="0" />
        <mxCell id="1" parent="0" />
      </root>
    </mxGraphModel>
  </diagram>
</mxfile>
